<?xml version="1.0" encoding="UTF-8"?>
<svg id="Layer_1" data-name="Layer 1" xmlns="http://www.w3.org/2000/svg" viewBox="0 0 1080 1080">
  <defs>
    <style>
      .cls-1 {
        fill: #ef4144;
      }

      .cls-2 {
        fill: #fff;
      }
    </style>
  </defs>
  <circle class="cls-1" cx="540" cy="540" r="538.62"/>
  <g>
    <path class="cls-2" d="M393.32,565.92V286.37h-111.87L68.5,555.6v110.12h208.09v109.35h116.73v-103.8h-.19v-105.35h.19Zm-113.3,1.66h-125.6l125.6-159.2v159.2Z"/>
    <path class="cls-2" d="M281.98,286.26h184.49c51.47,0,91.94,13.07,121.42,39.21,29.47,26.14,44.21,68.1,44.21,125.87,0,53.2-13.36,93.32-40.08,120.37-26.72,27.05-62.67,40.58-107.86,40.58h-92.54v163.7h-109.64V286.26Zm171.52,226.99c11.39,0,20.62-.58,27.7-1.73,7.07-1.15,14.44-3.55,22.1-7.22,7.67-3.67,13.37-9.75,17.1-18.23,3.73-8.48,5.6-19.6,5.6-33.36,0-22.47-5.5-38.4-16.5-47.81-11.01-9.39-26.72-14.1-47.16-14.1h-70.73v122.43h61.89Z"/>
    <path class="cls-2" d="M1010.45,775.07h-356.4V286.14h128.41v379.06h227.99v109.88Z"/>
  </g>
</svg>